<svg width="1688" height="410" viewBox="0 0 1688 410" fill="none" xmlns="http://www.w3.org/2000/svg">
<circle cx="658.667" cy="74.6667" r="3.66667" stroke="#F4D06F" stroke-width="2"/>
<circle cx="677.333" cy="74.6667" r="3.66667" stroke="#F4D06F" stroke-width="2"/>
<circle cx="714.667" cy="74.6667" r="3.66667" stroke="#F4D06F" stroke-width="2"/>
<circle cx="696" cy="74.6667" r="3.66667" stroke="#F4D06F" stroke-width="2"/>
<circle cx="733.333" cy="74.6667" r="3.66667" stroke="#F4D06F" stroke-width="2"/>
<circle cx="658.667" cy="93.3333" r="3.66667" stroke="#F4D06F" stroke-width="2"/>
<circle cx="677.333" cy="93.3333" r="3.66667" stroke="#F4D06F" stroke-width="2"/>
<circle cx="714.667" cy="93.3333" r="3.66667" stroke="#F4D06F" stroke-width="2"/>
<circle cx="696" cy="93.3333" r="3.66667" stroke="#F4D06F" stroke-width="2"/>
<circle cx="733.333" cy="93.3333" r="3.66667" stroke="#F4D06F" stroke-width="2"/>
<circle cx="658.667" cy="130.667" r="3.66667" stroke="#F4D06F" stroke-width="2"/>
<circle cx="677.333" cy="130.667" r="3.66667" stroke="#F4D06F" stroke-width="2"/>
<circle cx="714.667" cy="130.667" r="3.66667" stroke="#F4D06F" stroke-width="2"/>
<circle cx="696" cy="130.667" r="3.66667" stroke="#F4D06F" stroke-width="2"/>
<circle cx="733.333" cy="130.667" r="3.66667" stroke="#F4D06F" stroke-width="2"/>
<circle cx="658.667" cy="149.333" r="3.66667" stroke="#F4D06F" stroke-width="2"/>
<circle cx="677.333" cy="149.333" r="3.66667" stroke="#F4D06F" stroke-width="2"/>
<circle cx="714.667" cy="149.333" r="3.66667" stroke="#F4D06F" stroke-width="2"/>
<circle cx="696" cy="149.333" r="3.66667" stroke="#F4D06F" stroke-width="2"/>
<circle cx="733.333" cy="149.333" r="3.66667" stroke="#F4D06F" stroke-width="2"/>
<circle cx="658.667" cy="112" r="3.66667" stroke="#F4D06F" stroke-width="2"/>
<circle cx="677.333" cy="112" r="3.66667" stroke="#F4D06F" stroke-width="2"/>
<circle cx="714.667" cy="112" r="3.66667" stroke="#F4D06F" stroke-width="2"/>
<circle cx="696" cy="112" r="3.66667" stroke="#F4D06F" stroke-width="2"/>
<circle cx="733.333" cy="112" r="3.66667" stroke="#F4D06F" stroke-width="2"/>
<circle cx="1489.17" cy="296.385" r="3.15385" stroke="#4831D4" stroke-width="2"/>
<circle cx="1505.79" cy="296.385" r="3.15385" stroke="#4831D4" stroke-width="2"/>
<circle cx="1539.02" cy="296.385" r="3.15385" stroke="#4831D4" stroke-width="2"/>
<circle cx="1522.41" cy="296.385" r="3.15385" stroke="#4831D4" stroke-width="2"/>
<circle cx="1555.64" cy="296.385" r="3.15385" stroke="#4831D4" stroke-width="2"/>
<circle cx="1489.17" cy="313" r="3.15385" stroke="#4831D4" stroke-width="2"/>
<circle cx="1505.79" cy="313" r="3.15385" stroke="#4831D4" stroke-width="2"/>
<circle cx="1539.02" cy="313" r="3.15385" stroke="#4831D4" stroke-width="2"/>
<circle cx="1522.41" cy="313" r="3.15385" stroke="#4831D4" stroke-width="2"/>
<circle cx="1555.64" cy="313" r="3.15385" stroke="#4831D4" stroke-width="2"/>
<circle cx="1489.17" cy="346.231" r="3.15385" stroke="#4831D4" stroke-width="2"/>
<circle cx="1505.79" cy="346.231" r="3.15385" stroke="#4831D4" stroke-width="2"/>
<circle cx="1539.02" cy="346.231" r="3.15385" stroke="#4831D4" stroke-width="2"/>
<circle cx="1522.41" cy="346.231" r="3.15385" stroke="#4831D4" stroke-width="2"/>
<circle cx="1555.64" cy="346.231" r="3.15385" stroke="#4831D4" stroke-width="2"/>
<circle cx="1489.17" cy="362.846" r="3.15385" stroke="#4831D4" stroke-width="2"/>
<circle cx="1505.79" cy="362.846" r="3.15385" stroke="#4831D4" stroke-width="2"/>
<circle cx="1539.02" cy="362.846" r="3.15385" stroke="#4831D4" stroke-width="2"/>
<circle cx="1522.41" cy="362.846" r="3.15385" stroke="#4831D4" stroke-width="2"/>
<circle cx="1555.64" cy="362.846" r="3.15385" stroke="#4831D4" stroke-width="2"/>
<circle cx="1489.17" cy="329.615" r="3.15385" stroke="#4831D4" stroke-width="2"/>
<circle cx="1505.79" cy="329.615" r="3.15385" stroke="#4831D4" stroke-width="2"/>
<circle cx="1539.02" cy="329.615" r="3.15385" stroke="#4831D4" stroke-width="2"/>
<circle cx="1522.41" cy="329.615" r="3.15385" stroke="#4831D4" stroke-width="2"/>
<circle cx="1555.64" cy="329.615" r="3.15385" stroke="#4831D4" stroke-width="2"/>
<path d="M902 253H912.37V263.769H922.741V274.538H933.111V285.308H944V295" stroke="#F4D06F" stroke-width="2"/>
<path d="M1000 74L1000 62.642L1011.54 62.642L1011.54 51.2839L1023.08 51.2839L1023.08 39.9259L1034.62 39.9259L1034.62 28L1045 28" stroke="#F4D06F" stroke-width="2"/>
<path d="M1374 43H1385.11V54.5385H1396.22V66.0769H1407.33V77.6154H1419V88" stroke="#4831D4" stroke-width="2"/>
<path d="M1503 165L1511.78 172L1520.56 165L1529.33 172L1538.11 165L1546.89 172L1555.67 165L1564.44 172L1573.22 165L1582 172" stroke="#4831D4" stroke-width="2"/>
<path d="M751 379L759 370.778L751 362.556L759 354.333L751 346.111L759 337.889L751 329.667L759 321.444L751 313.222L759 305" stroke="#F4D06F" stroke-width="2"/>
</svg>
